<mxfile host="app.diagrams.net" modified="2023-10-09T02:17:07.424Z" agent="Mozilla/5.0 (Windows NT 10.0; Win64; x64; rv:109.0) Gecko/20100101 Firefox/118.0" etag="JW_f1O5ktQpD87ZwtTGT" version="22.0.4" type="github">
  <diagram name="Page-1" id="SsJRbxVES4GSstF9zzAM">
    <mxGraphModel dx="880" dy="1570" grid="1" gridSize="10" guides="1" tooltips="1" connect="1" arrows="1" fold="1" page="1" pageScale="1" pageWidth="850" pageHeight="1100" math="0" shadow="0">
      <root>
        <mxCell id="0" />
        <mxCell id="1" parent="0" />
        <mxCell id="eXqIN8FRxbrmnTyZxNRn-47" value="" style="edgeStyle=orthogonalEdgeStyle;rounded=0;orthogonalLoop=1;jettySize=auto;html=1;" edge="1" parent="1" source="eXqIN8FRxbrmnTyZxNRn-1" target="eXqIN8FRxbrmnTyZxNRn-3">
          <mxGeometry relative="1" as="geometry" />
        </mxCell>
        <mxCell id="eXqIN8FRxbrmnTyZxNRn-1" value="START" style="strokeWidth=2;html=1;shape=mxgraph.flowchart.terminator;whiteSpace=wrap;" vertex="1" parent="1">
          <mxGeometry x="330" width="190" height="100" as="geometry" />
        </mxCell>
        <mxCell id="eXqIN8FRxbrmnTyZxNRn-48" value="" style="edgeStyle=orthogonalEdgeStyle;rounded=0;orthogonalLoop=1;jettySize=auto;html=1;" edge="1" parent="1" source="eXqIN8FRxbrmnTyZxNRn-3" target="eXqIN8FRxbrmnTyZxNRn-21">
          <mxGeometry relative="1" as="geometry" />
        </mxCell>
        <mxCell id="eXqIN8FRxbrmnTyZxNRn-3" value="1-100" style="shape=parallelogram;html=1;strokeWidth=2;perimeter=parallelogramPerimeter;whiteSpace=wrap;rounded=1;arcSize=12;size=0.14285714285714285;" vertex="1" parent="1">
          <mxGeometry x="340" y="130" width="170" height="80" as="geometry" />
        </mxCell>
        <mxCell id="eXqIN8FRxbrmnTyZxNRn-49" value="" style="edgeStyle=orthogonalEdgeStyle;rounded=0;orthogonalLoop=1;jettySize=auto;html=1;" edge="1" parent="1" source="eXqIN8FRxbrmnTyZxNRn-21" target="eXqIN8FRxbrmnTyZxNRn-27">
          <mxGeometry relative="1" as="geometry" />
        </mxCell>
        <mxCell id="eXqIN8FRxbrmnTyZxNRn-21" value="TEBAK" style="shape=parallelogram;html=1;strokeWidth=2;perimeter=parallelogramPerimeter;whiteSpace=wrap;rounded=1;arcSize=12;size=0.23;" vertex="1" parent="1">
          <mxGeometry x="340.5" y="240" width="170" height="80" as="geometry" />
        </mxCell>
        <mxCell id="eXqIN8FRxbrmnTyZxNRn-50" value="" style="edgeStyle=orthogonalEdgeStyle;rounded=0;orthogonalLoop=1;jettySize=auto;html=1;" edge="1" parent="1" source="eXqIN8FRxbrmnTyZxNRn-27" target="eXqIN8FRxbrmnTyZxNRn-30">
          <mxGeometry relative="1" as="geometry" />
        </mxCell>
        <mxCell id="eXqIN8FRxbrmnTyZxNRn-55" style="edgeStyle=orthogonalEdgeStyle;rounded=0;orthogonalLoop=1;jettySize=auto;html=1;exitX=1;exitY=0.5;exitDx=0;exitDy=0;entryX=1;entryY=0.5;entryDx=0;entryDy=0;" edge="1" parent="1" source="eXqIN8FRxbrmnTyZxNRn-27" target="eXqIN8FRxbrmnTyZxNRn-42">
          <mxGeometry relative="1" as="geometry">
            <mxPoint x="680" y="744" as="targetPoint" />
            <Array as="points">
              <mxPoint x="750" y="410" />
              <mxPoint x="750" y="735" />
            </Array>
          </mxGeometry>
        </mxCell>
        <mxCell id="eXqIN8FRxbrmnTyZxNRn-56" style="edgeStyle=orthogonalEdgeStyle;rounded=0;orthogonalLoop=1;jettySize=auto;html=1;entryX=0;entryY=0.5;entryDx=0;entryDy=0;" edge="1" parent="1" source="eXqIN8FRxbrmnTyZxNRn-27" target="eXqIN8FRxbrmnTyZxNRn-44">
          <mxGeometry relative="1" as="geometry">
            <Array as="points">
              <mxPoint x="170" y="410" />
              <mxPoint x="170" y="865" />
            </Array>
          </mxGeometry>
        </mxCell>
        <mxCell id="eXqIN8FRxbrmnTyZxNRn-27" value="MENEBAK" style="rounded=1;whiteSpace=wrap;html=1;absoluteArcSize=1;arcSize=14;strokeWidth=2;" vertex="1" parent="1">
          <mxGeometry x="320" y="360" width="210" height="100" as="geometry" />
        </mxCell>
        <mxCell id="eXqIN8FRxbrmnTyZxNRn-51" value="yes" style="edgeStyle=orthogonalEdgeStyle;rounded=0;orthogonalLoop=1;jettySize=auto;html=1;" edge="1" parent="1" source="eXqIN8FRxbrmnTyZxNRn-30" target="eXqIN8FRxbrmnTyZxNRn-39">
          <mxGeometry relative="1" as="geometry" />
        </mxCell>
        <mxCell id="eXqIN8FRxbrmnTyZxNRn-52" value="" style="edgeStyle=orthogonalEdgeStyle;rounded=0;orthogonalLoop=1;jettySize=auto;html=1;" edge="1" parent="1" source="eXqIN8FRxbrmnTyZxNRn-30" target="eXqIN8FRxbrmnTyZxNRn-40">
          <mxGeometry relative="1" as="geometry" />
        </mxCell>
        <mxCell id="eXqIN8FRxbrmnTyZxNRn-54" value="no" style="edgeStyle=orthogonalEdgeStyle;rounded=0;orthogonalLoop=1;jettySize=auto;html=1;" edge="1" parent="1" source="eXqIN8FRxbrmnTyZxNRn-30" target="eXqIN8FRxbrmnTyZxNRn-40">
          <mxGeometry relative="1" as="geometry" />
        </mxCell>
        <mxCell id="eXqIN8FRxbrmnTyZxNRn-30" value="TEBAK=ANGKA" style="strokeWidth=2;html=1;shape=mxgraph.flowchart.decision;whiteSpace=wrap;" vertex="1" parent="1">
          <mxGeometry x="350" y="490" width="150" height="150" as="geometry" />
        </mxCell>
        <mxCell id="eXqIN8FRxbrmnTyZxNRn-39" value="men&#39;ang" style="strokeWidth=2;html=1;shape=mxgraph.flowchart.stored_data;whiteSpace=wrap;" vertex="1" parent="1">
          <mxGeometry x="565" y="535" width="100" height="60" as="geometry" />
        </mxCell>
        <mxCell id="eXqIN8FRxbrmnTyZxNRn-43" value="" style="edgeStyle=orthogonalEdgeStyle;rounded=0;orthogonalLoop=1;jettySize=auto;html=1;" edge="1" parent="1" source="eXqIN8FRxbrmnTyZxNRn-40" target="eXqIN8FRxbrmnTyZxNRn-42">
          <mxGeometry relative="1" as="geometry" />
        </mxCell>
        <mxCell id="eXqIN8FRxbrmnTyZxNRn-45" value="" style="edgeStyle=orthogonalEdgeStyle;rounded=0;orthogonalLoop=1;jettySize=auto;html=1;" edge="1" parent="1" source="eXqIN8FRxbrmnTyZxNRn-40" target="eXqIN8FRxbrmnTyZxNRn-44">
          <mxGeometry relative="1" as="geometry" />
        </mxCell>
        <mxCell id="eXqIN8FRxbrmnTyZxNRn-40" value="false/salah" style="strokeWidth=2;html=1;shape=mxgraph.flowchart.decision;whiteSpace=wrap;" vertex="1" parent="1">
          <mxGeometry x="353" y="670" width="145" height="130" as="geometry" />
        </mxCell>
        <mxCell id="eXqIN8FRxbrmnTyZxNRn-42" value="angkaku lebih besar " style="rounded=1;whiteSpace=wrap;html=1;absoluteArcSize=1;arcSize=14;strokeWidth=2;" vertex="1" parent="1">
          <mxGeometry x="565" y="700" width="110" height="70" as="geometry" />
        </mxCell>
        <mxCell id="eXqIN8FRxbrmnTyZxNRn-53" value="" style="edgeStyle=orthogonalEdgeStyle;rounded=0;orthogonalLoop=1;jettySize=auto;html=1;" edge="1" parent="1" source="eXqIN8FRxbrmnTyZxNRn-44" target="eXqIN8FRxbrmnTyZxNRn-46">
          <mxGeometry relative="1" as="geometry" />
        </mxCell>
        <mxCell id="eXqIN8FRxbrmnTyZxNRn-44" value="angkaku lebih kecil" style="rounded=1;whiteSpace=wrap;html=1;absoluteArcSize=1;arcSize=14;strokeWidth=2;" vertex="1" parent="1">
          <mxGeometry x="375" y="830" width="100" height="70" as="geometry" />
        </mxCell>
        <mxCell id="eXqIN8FRxbrmnTyZxNRn-46" value="finish" style="strokeWidth=2;html=1;shape=mxgraph.flowchart.terminator;whiteSpace=wrap;" vertex="1" parent="1">
          <mxGeometry x="375.5" y="930" width="100" height="60" as="geometry" />
        </mxCell>
        <mxCell id="eXqIN8FRxbrmnTyZxNRn-57" style="edgeStyle=orthogonalEdgeStyle;rounded=0;orthogonalLoop=1;jettySize=auto;html=1;entryX=1.065;entryY=0.683;entryDx=0;entryDy=0;entryPerimeter=0;" edge="1" parent="1" source="eXqIN8FRxbrmnTyZxNRn-39" target="eXqIN8FRxbrmnTyZxNRn-46">
          <mxGeometry relative="1" as="geometry">
            <Array as="points">
              <mxPoint x="710" y="565" />
              <mxPoint x="710" y="971" />
            </Array>
          </mxGeometry>
        </mxCell>
      </root>
    </mxGraphModel>
  </diagram>
</mxfile>
